<svg width="44" height="55" viewBox="0 0 44 55" fill="none" xmlns="http://www.w3.org/2000/svg">
<g id="Group 19">
<path id="Vector" d="M9.66042 11.6423C9.46068 11.842 9.3457 12.1194 9.3457 12.4018C9.3457 12.6854 9.46068 12.9615 9.66042 13.1613C9.86015 13.361 10.1375 13.476 10.4199 13.476C10.7036 13.476 10.9797 13.361 11.1794 13.1613C11.3792 12.9615 11.4941 12.6854 11.4941 12.4018C11.4941 12.1194 11.3792 11.842 11.1794 11.6423C10.9797 11.4425 10.7036 11.3276 10.4199 11.3276C10.1375 11.3276 9.86015 11.4425 9.66042 11.6423Z" fill="#FFCD00"/>
<path id="Vector_2" d="M39.6047 11.328H14.7168C14.1235 11.328 13.6426 11.8089 13.6426 12.4022C13.6426 12.9955 14.1235 13.4764 14.7168 13.4764H39.6047C40.5119 13.4764 41.25 14.2141 41.25 15.1213V37.168H34.1106C33.5173 37.168 33.0364 37.6488 33.0364 38.2422C33.0364 38.8355 33.5173 39.3164 34.1106 39.3164H41.25V39.8195C41.25 40.7267 40.5119 41.4648 39.6047 41.4648H8.23162C7.97859 41.4648 7.73354 41.5542 7.53967 41.7175L2.14844 46.2573V15.1213C2.14844 14.2141 2.88654 13.4764 3.79375 13.4764H6.12347C6.71638 13.4764 7.19769 12.9955 7.19769 12.4022C7.19769 11.8089 6.71638 11.328 6.12347 11.328H3.79375C1.70197 11.328 0 13.0295 0 15.1213V48.5664C0 48.9844 0.242119 49.3641 0.621033 49.5404C0.7658 49.6075 0.920219 49.6407 1.0738 49.6407C1.32263 49.6407 1.56853 49.5542 1.76617 49.388L8.62354 43.6133H39.6047C41.6965 43.6133 43.3984 41.9113 43.3984 39.8195V15.1213C43.3984 13.0295 41.6965 11.328 39.6047 11.328Z" fill="#212C4F"/>
<path id="Vector_3" d="M21.6992 7.51617C22.2926 7.51617 22.7734 7.03529 22.7734 6.44196V1.07422C22.7734 0.480881 22.2926 0 21.6992 0C21.1059 0 20.625 0.480881 20.625 1.07422V6.44196C20.625 7.03529 21.1059 7.51617 21.6992 7.51617Z" fill="#FF6464"/>
<path id="Vector_4" d="M29.7957 7.95216C30.0709 7.95216 30.3454 7.84725 30.5552 7.63744L34.3107 3.88229C34.7303 3.46268 34.7303 2.78248 34.3107 2.36286C33.8911 1.94324 33.2109 1.94324 32.7913 2.36286L29.0361 6.11801C28.6165 6.53763 28.6165 7.21783 29.0361 7.63744C29.246 7.84725 29.5208 7.95216 29.7957 7.95216Z" fill="#FF6464"/>
<path id="Vector_5" d="M12.8432 7.63031C13.053 7.84012 13.3279 7.94502 13.6027 7.94502C13.8776 7.94502 14.1524 7.84012 14.3622 7.63031C14.7819 7.21069 14.7819 6.53049 14.3622 6.11088L10.6067 2.35573C10.1875 1.93611 9.50728 1.93611 9.08766 2.35573C8.66805 2.77534 8.66805 3.45512 9.08766 3.87474L12.8432 7.63031Z" fill="#FF6464"/>
<path id="Vector_6" d="M21.6992 47.4838C21.1059 47.4838 20.625 47.9647 20.625 48.558V53.9258C20.625 54.5191 21.1059 55 21.6992 55C22.2926 55 22.7734 54.5191 22.7734 53.9258V48.558C22.7734 47.9647 22.2926 47.4838 21.6992 47.4838Z" fill="#FFCD00"/>
<path id="Vector_7" d="M30.5552 47.3626C30.1355 46.9429 29.4558 46.9429 29.0361 47.3626C28.6165 47.7822 28.6165 48.4624 29.0361 48.882L32.7913 52.6371C33.0011 52.847 33.276 52.9519 33.5508 52.9519C33.8261 52.9519 34.1009 52.847 34.3107 52.6371C34.7299 52.2175 34.7299 51.5373 34.3107 51.1177L30.5552 47.3626Z" fill="#FFCD00"/>
<path id="Vector_8" d="M12.8432 47.3697L9.08766 51.1253C8.66805 51.5449 8.66805 52.2247 9.08766 52.6443C9.29747 52.8541 9.57232 52.959 9.84717 52.959C10.122 52.959 10.3969 52.8541 10.6067 52.6443L14.3622 48.8891C14.7819 48.4695 14.7819 47.7893 14.3622 47.3697C13.9426 46.9501 13.2628 46.9501 12.8432 47.3697Z" fill="#FFCD00"/>
<path id="Vector_9" d="M31.5732 26.8181C31.5732 24.0029 29.2833 21.7131 26.4681 21.7131H24.1376C23.5447 21.7131 23.0634 22.194 23.0634 22.7873V32.2404C23.0634 32.8333 23.5447 33.3146 24.1376 33.3146H26.4681C29.2829 33.3146 31.5732 31.0244 31.5732 28.2092V26.8181ZM29.4247 28.2092C29.4247 29.8398 28.0983 31.1662 26.4681 31.1662H25.2118V23.8615H26.4681C28.0983 23.8615 29.4247 25.1875 29.4247 26.8181V28.2092Z" fill="#05BB75"/>
<path id="Vector_10" d="M12.7899 29.1969L11.8814 31.8976C11.6921 32.4599 11.9943 33.0692 12.5566 33.2584C13.1197 33.4477 13.7281 33.1451 13.9174 32.5828L14.5879 30.5901H17.5722L18.2428 32.5828C18.3934 33.0314 18.8118 33.3146 19.2608 33.3146C19.3745 33.3146 19.4899 33.2966 19.6032 33.2584C20.1655 33.0692 20.468 32.4599 20.2788 31.8976L17.0981 22.4445C16.9512 22.0072 16.5412 21.7131 16.0801 21.7131C15.6189 21.7131 15.209 22.0072 15.0621 22.4445L12.7907 29.1948C12.7903 29.1957 12.7899 29.1961 12.7899 29.1969ZM16.0801 26.1556L16.8492 28.4416H15.3109L16.0801 26.1556Z" fill="#05BB75"/>
<path id="Vector_11" d="M29.108 37.4827C28.9083 37.6824 28.7933 37.9598 28.7933 38.2422C28.7933 38.5258 28.9083 38.802 29.108 39.0017C29.3082 39.2014 29.5852 39.3164 29.8676 39.3164C30.1504 39.3164 30.4273 39.2014 30.6271 39.0017C30.8268 38.802 30.9418 38.5246 30.9418 38.2422C30.9418 37.9598 30.8268 37.6824 30.6271 37.4827C30.4273 37.2829 30.1504 37.168 29.8676 37.168C29.5852 37.168 29.3078 37.2829 29.108 37.4827Z" fill="#FF6464"/>
</g>
</svg>
