<svg width="60" height="55" viewBox="0 0 60 55" fill="none" xmlns="http://www.w3.org/2000/svg">
<g id="Group 32">
<path id="Vector" d="M8.91925 55H53.1152C56.6152 55 59.503 52.1462 59.503 48.6463V18.9656C59.4839 15.4796 56.6715 12.6537 53.1855 12.6186L43.8261 12.5452C41.883 9.63929 38.6274 7.88364 35.1316 7.85627C31.6358 7.82889 28.3533 9.53392 26.3652 12.4094L15.0741 12.3205V9.20955C15.0741 5.83358 12.3107 3.03404 8.94818 3.03404H8.9177C4.13422 3.03404 0.227268 6.86868 0.0490694 11.6289H0V45.6118H0.053718C0.0454537 45.744 0 45.9237 0 46.0813V46.0968C0.0196278 51.012 4.00406 54.9897 8.91925 55ZM27.4799 14.6475C29.1224 11.3567 32.7044 9.50654 36.3387 10.0721C39.9724 10.6372 42.8236 13.4884 43.3892 17.1221C43.9542 20.7563 42.1041 24.3384 38.8133 25.9809C38.8025 25.9866 38.7632 25.9933 38.7524 25.999C38.3567 26.1622 38.0938 26.5434 38.0819 26.9716V28.6865H36.0985V23.6178C37.4053 23.1091 38.1646 21.7418 37.9058 20.3633C37.647 18.9852 36.443 17.9868 35.0407 17.9868C33.6383 17.9868 32.4343 18.9852 32.1755 20.3633C31.9168 21.7418 32.676 23.1091 33.9828 23.6178V28.6865H31.9994V26.9716C31.9875 26.5434 31.7246 26.1622 31.329 25.999C31.3181 25.9933 31.2933 25.9866 31.282 25.9809C27.108 23.8963 25.4076 18.8276 27.4799 14.6475ZM34.2411 20.9025C34.2411 20.4609 34.599 20.1029 35.0407 20.1029C35.4823 20.1029 35.8402 20.4609 35.8402 20.9025C35.8402 21.3441 35.4823 21.7021 35.0407 21.7021C34.5996 21.7016 34.2416 21.3441 34.2411 20.9025ZM38.0819 30.8021V31.9922H31.9994V30.8021H38.0819ZM38.1274 34.1078C38.0215 34.9322 37.3247 35.5525 36.4936 35.5624H33.5877C32.7566 35.5525 32.0598 34.9322 31.9539 34.1078H38.1274ZM2.11566 11.9817C2.11566 8.2483 5.18689 5.1497 8.92029 5.1497H8.93578C11.1439 5.1497 12.9584 7.00039 12.9584 9.20955V33.1972C12.9584 35.4058 11.1439 37.1491 8.93682 37.1491H8.92752C6.21734 37.1491 3.83464 38.4234 2.11566 40.3433V11.9817ZM2.11566 46.0823C2.13736 42.3277 5.17397 39.289 8.92855 39.2648H8.93578C12.3107 39.2648 15.0741 36.5727 15.0741 33.1972V14.4362L25.264 14.5152C23.309 19.4211 25.2836 25.0161 29.8837 27.609V33.8966C29.8837 35.9699 31.5134 37.678 33.5877 37.678H36.4936C38.568 37.678 40.1976 35.9699 40.1976 33.8966V27.6064C44.7528 25.0538 46.7512 19.5503 44.8964 14.6697L53.1617 14.7342C55.4881 14.7564 57.3682 16.6386 57.3873 18.9656V48.6463C57.3662 50.9913 55.4607 52.8818 53.1152 52.8843H8.92029C5.17294 52.8761 2.13426 49.8457 2.11566 46.0978V46.0823Z" fill="#212C4F"/>
<path id="Vector_2" d="M35.0406 5.83047C35.6248 5.83047 36.0985 5.35682 36.0985 4.77264V1.05783C36.0985 0.473648 35.6248 0 35.0406 0C34.4564 0 33.9828 0.473648 33.9828 1.05783V4.77264C33.9828 5.35682 34.4564 5.83047 35.0406 5.83047Z" fill="#05BB75"/>
<path id="Vector_3" d="M48.4841 19.166H52.1545C52.7387 19.166 53.2123 18.6928 53.2123 18.1081C53.2123 17.5239 52.7387 17.0503 52.1545 17.0503H48.4841C47.8999 17.0503 47.4263 17.5239 47.4263 18.1081C47.4263 18.6928 47.8999 19.166 48.4841 19.166Z" fill="#FF6464"/>
<path id="Vector_4" d="M17.9268 19.166H21.5972C22.1814 19.166 22.6551 18.6928 22.6551 18.1081C22.6551 17.5239 22.1814 17.0503 21.5972 17.0503H17.9268C17.3427 17.0503 16.869 17.5239 16.869 18.1081C16.869 18.6928 17.3427 19.166 17.9268 19.166Z" fill="#FF6464"/>
<path id="Vector_5" d="M44.4155 9.6775C44.6965 9.67802 44.9656 9.56645 45.1639 9.36759L47.729 6.80256C48.1381 6.38831 48.136 5.72251 47.7243 5.31085C47.3132 4.8997 46.6469 4.89763 46.2331 5.30672L43.6676 7.87175C43.3654 8.17443 43.2745 8.62948 43.4383 9.02462C43.602 9.41976 43.9878 9.6775 44.416 9.6775H44.4155Z" fill="#FFCD00"/>
<path id="Vector_6" d="M24.9173 9.36809C25.3306 9.78131 26.0005 9.78131 26.4137 9.36809C26.8269 8.95488 26.8269 8.28547 26.4137 7.87226L23.8487 5.3067C23.4334 4.90589 22.7738 4.91157 22.3657 5.32013C21.9577 5.72818 21.952 6.38778 22.3528 6.80254L24.9173 9.36809Z" fill="#FFCD00"/>
</g>
</svg>
