<svg width="53" height="55" viewBox="0 0 53 55" fill="none" xmlns="http://www.w3.org/2000/svg">
<g id="Group">
<g id="Group_2">
<path id="Vector" d="M6.2509 6.29328L7.14379 8.80384C7.18203 8.91137 7.25765 8.99645 7.35315 9.03952L9.58366 10.0445C9.89873 10.1865 9.89873 10.6886 9.58366 10.8305L7.35315 11.8354C7.25765 11.8784 7.18192 11.9635 7.14379 12.0711L6.2509 14.5816C6.12478 14.9363 5.67866 14.9363 5.55255 14.5816L4.65965 12.0711C4.62141 11.9635 4.54579 11.8784 4.45029 11.8354L2.21978 10.8305C1.9046 10.6885 1.9046 10.1864 2.21978 10.0445L4.45029 9.03952C4.54579 8.99645 4.62141 8.91126 4.65965 8.80384L5.55255 6.29328C5.67866 5.93858 6.12478 5.93858 6.2509 6.29328Z" fill="#FF6464"/>
<path id="Vector_2" d="M14.0912 0.197307L14.7534 2.05957C14.7818 2.13928 14.838 2.20245 14.9088 2.23446L16.5634 2.97986C16.7971 3.08524 16.7971 3.45756 16.5634 3.56294L14.9088 4.30834C14.8379 4.34025 14.7818 4.40341 14.7534 4.48323L14.0912 6.34549C13.9976 6.60857 13.6667 6.60857 13.5732 6.34549L12.9109 4.48323C12.8826 4.40352 12.8265 4.34036 12.7556 4.30834L11.101 3.56294C10.8672 3.45767 10.8672 3.08524 11.101 2.97986L12.7556 2.23446C12.8265 2.20255 12.8826 2.13939 12.9109 2.05957L13.5732 0.197307C13.6666 -0.0657691 13.9976 -0.0657691 14.0912 0.197307Z" fill="#FFCD00"/>
<path id="Vector_3" d="M47.1145 3.12652C47.3622 2.07886 46.7136 1.0288 45.666 0.781156C44.6183 0.533507 43.5682 1.18204 43.3206 2.22971C43.073 3.27737 43.7215 4.32743 44.7692 4.57508C45.8168 4.82273 46.8669 4.17419 47.1145 3.12652Z" fill="#FFCD00"/>
<path id="Vector_4" d="M2.95108 4.28059C3.0254 3.82216 2.714 3.39028 2.25557 3.31596C1.79713 3.24164 1.36525 3.55304 1.29093 4.01147C1.21662 4.46991 1.52801 4.90179 1.98645 4.97611C2.44488 5.05042 2.87676 4.73903 2.95108 4.28059Z" fill="#05BB75"/>
<path id="Vector_5" d="M49.7378 10.7048L50.4 12.5671C50.4284 12.6468 50.4846 12.7099 50.5554 12.7419L52.2099 13.4873C52.4436 13.5926 52.4436 13.9651 52.2099 14.0704L50.5554 14.8158C50.4846 14.8477 50.4284 14.9109 50.4 14.9907L49.7378 16.853C49.6442 17.116 49.3134 17.116 49.2198 16.853L48.5575 14.9907C48.5292 14.911 48.4731 14.8478 48.4022 14.8158L46.7476 14.0704C46.5138 13.9651 46.5138 13.5927 46.7476 13.4873L48.4022 12.7419C48.473 12.71 48.5292 12.6469 48.5575 12.5671L49.2198 10.7048C49.3132 10.4417 49.6442 10.4417 49.7378 10.7048Z" fill="#FF6464"/>
</g>
<g id="Group_3">
<path id="Vector_6" d="M45.299 22.8825H41.2777L40.9366 21.1404C40.5459 19.1454 38.7869 17.6974 36.754 17.6974H35.1299V15.6116H37.2692C39.1411 15.6116 40.664 14.0886 40.664 12.2166V6.85875C40.664 4.98682 39.141 3.46379 37.2692 3.46379H22.267C20.395 3.46379 18.872 4.98671 18.872 6.85875V12.2166C18.872 14.0887 20.395 15.6116 22.267 15.6116H24.4062V17.6974H22.5429C20.5057 17.6974 18.746 19.1491 18.3586 21.1491L18.0228 22.8825H13.8974C13.4426 22.3752 12.8593 21.9861 12.1994 21.7653V21.4588C12.1994 19.3999 10.5244 17.725 8.46571 17.725H6.44585C4.387 17.725 2.71219 19.3999 2.71219 21.4588V21.7652C1.13803 22.292 0 23.7794 0 25.5286V51.0318C0 53.2199 1.78009 55 3.96817 55H10.8277H10.9435H45.299C48.0831 55 50.3482 52.7349 50.3482 49.9508V27.9317C50.3482 25.1476 48.0831 22.8825 45.299 22.8825ZM21.0459 12.2166V6.85875C21.0459 6.18543 21.5937 5.63769 22.267 5.63769H37.2691C37.9424 5.63769 38.49 6.18543 38.49 6.85875V12.2166C38.49 12.89 37.9423 13.4377 37.2691 13.4377H22.267C21.5937 13.4377 21.0459 12.89 21.0459 12.2166ZM26.5801 15.6116H32.956V17.6974H26.5801V15.6116ZM18.9195 25.0563C19.4401 25.0563 19.8877 24.6872 19.9866 24.1761L20.4928 21.5626C20.6826 20.5827 21.5448 19.8714 22.5429 19.8714H36.7541C37.75 19.8714 38.612 20.5808 38.8034 21.5584L39.3165 24.1784C39.4164 24.6884 39.8634 25.0565 40.3832 25.0565H45.2992C46.8847 25.0565 48.1745 26.3464 48.1745 27.9318V30.8382H39.1646C36.9337 28.1212 33.55 26.3849 29.7682 26.3849C25.9864 26.3849 22.6028 28.1212 20.3718 30.8382H14.912V25.5288C14.912 25.3688 14.9014 25.2115 14.8829 25.0565H18.9195V25.0563ZM29.768 28.5586C35.2716 28.5586 39.749 33.0361 39.749 38.5396C39.749 44.0432 35.2716 48.5206 29.768 48.5206C24.2645 48.5206 19.787 44.0432 19.787 38.5396C19.787 33.0361 24.2645 28.5586 29.768 28.5586ZM6.44585 19.899H8.46582C9.32594 19.899 10.0257 20.5988 10.0257 21.4589V21.5604H4.88609V21.4589C4.88609 20.5988 5.58573 19.899 6.44585 19.899ZM2.17379 51.0318V25.5286C2.17379 24.5391 2.9787 23.7342 3.96806 23.7342H10.9434C11.9327 23.7342 12.7378 24.5391 12.7378 25.5286V51.0318C12.7378 52.0212 11.9327 52.8262 10.9434 52.8262H3.96806C2.9787 52.8261 2.17379 52.0212 2.17379 51.0318ZM45.299 52.8261H14.4811C14.7558 52.2867 14.9118 51.6773 14.9118 51.0317V32.1424H19.4374C18.2817 34.0018 17.6131 36.194 17.6131 38.5396C17.6131 45.2418 23.0657 50.6945 29.768 50.6945C36.4703 50.6945 41.9229 45.2419 41.9229 38.5396C41.9229 36.194 41.2543 34.0017 40.0987 32.1424H48.1743V49.9508C48.1743 51.5363 46.8844 52.8261 45.299 52.8261Z" fill="#212C4F"/>
<path id="Vector_7" d="M29.7681 45.7961C33.7692 45.7961 37.0245 42.5409 37.0245 38.5396C37.0245 34.5384 33.7692 31.2832 29.7681 31.2832C25.7669 31.2832 22.5116 34.5384 22.5116 38.5396C22.5116 42.5409 25.7669 45.7961 29.7681 45.7961ZM29.7681 32.5875C33.0501 32.5875 35.7202 35.2576 35.7202 38.5396C35.7202 41.8217 33.0501 44.4918 29.7681 44.4918C26.486 44.4918 23.8159 41.8217 23.8159 38.5396C23.8159 35.2576 26.486 32.5875 29.7681 32.5875Z" fill="#FFCD00"/>
<path id="Vector_8" d="M37.4437 8.2026C37.4437 7.36353 36.761 6.68086 35.9219 6.68086H23.6141C22.7751 6.68086 22.0923 7.36353 22.0923 8.2026V10.8727C22.0923 11.7119 22.7751 12.3945 23.6141 12.3945H35.9219C36.761 12.3945 37.4437 11.7119 37.4437 10.8727V8.2026ZM36.1394 10.8727C36.1394 10.9927 36.0419 11.0902 35.9219 11.0902H23.6141C23.4941 11.0902 23.3966 10.9927 23.3966 10.8727V8.2026C23.3966 8.08272 23.4941 7.98518 23.6141 7.98518H35.9219C36.0419 7.98518 36.1394 8.08272 36.1394 8.2026V10.8727Z" fill="#05BB75"/>
<path id="Vector_9" d="M4.8636 36.7108C4.85414 36.7108 4.8448 36.7107 4.83524 36.7105C4.23518 36.6951 3.76112 36.1962 3.77649 35.5962C3.81333 34.156 3.81333 32.8723 3.77649 31.4339C3.76123 30.8338 4.23518 30.3349 4.83524 30.3195C5.43132 30.3035 5.93427 30.7781 5.94963 31.3782C5.98744 32.855 5.98744 34.1729 5.94963 35.6516C5.93449 36.2423 5.45098 36.7108 4.8636 36.7108Z" fill="#FF6464"/>
<path id="Vector_10" d="M4.86314 28.7957C4.26287 28.7957 3.77625 28.3091 3.77625 27.7088V27.3021C3.77625 26.7018 4.26287 26.2152 4.86314 26.2152C5.46341 26.2152 5.95003 26.7018 5.95003 27.3021V27.7088C5.95014 28.3091 5.46341 28.7957 4.86314 28.7957Z" fill="#05BB75"/>
<path id="Vector_11" d="M32.6231 41.398C33.4159 40.6052 33.4159 39.3197 32.6231 38.5269C31.8302 37.7341 30.5448 37.7341 29.752 38.5269C28.9591 39.3197 28.9591 40.6052 29.752 41.398C30.5448 42.1908 31.8302 42.1908 32.6231 41.398Z" fill="#05BB75"/>
</g>
</g>
</svg>
