<svg width="51" height="55" viewBox="0 0 51 55" fill="none" xmlns="http://www.w3.org/2000/svg">
<g id="Group 27">
<g id="Expand">
<path id="Vector" d="M7.79703 4.31953H5.84778V6.26878H7.79703V4.31953Z" fill="#212C4F"/>
<path id="Vector_2" d="M19.4925 4.31953H9.74622V6.26878H19.4925V4.31953Z" fill="#FFCD00"/>
<path id="Vector_3" d="M19.4924 8.21803H3.89844V10.1673H19.4924V8.21803Z" fill="#FF6464"/>
<path id="Vector_4" d="M16.5686 12.1165H3.89844V14.0658H16.5686V12.1165Z" fill="#05BB75"/>
<path id="Vector_5" d="M35.0865 14.0658H33.1372V16.015H35.0865V14.0658Z" fill="#212C4F"/>
<path id="Vector_6" d="M46.782 14.0658H37.0358V16.015H46.782V14.0658Z" fill="#FFCD00"/>
<path id="Vector_7" d="M46.782 17.9643H31.188V19.9135H46.782V17.9643Z" fill="#FF6464"/>
<path id="Vector_8" d="M43.8581 21.8628H31.188V23.812H43.8581V21.8628Z" fill="#05BB75"/>
<path id="Vector_9" d="M1.97066 21.8209C1.95702 22.1552 1.94922 22.4963 1.94922 22.8374C1.94922 23.1785 1.95702 23.5196 1.97066 23.8539L3.91991 23.7701C3.90529 23.4612 3.89847 23.1493 3.89847 22.8374C3.89847 22.5255 3.90529 22.2136 3.91893 21.9047L1.97066 21.8209Z" fill="#212C4F"/>
<path id="Vector_10" d="M11.1019 41.3972L12.289 39.8514C10.0479 38.1432 8.16818 36.0069 6.75898 33.5666C5.34977 31.1263 4.4391 28.4305 4.07977 25.6355L2.14417 25.887C2.53642 28.9365 3.5302 31.8778 5.0679 34.5403C6.60559 37.2027 8.65659 39.5334 11.1019 41.3972Z" fill="#FF6464"/>
<path id="Vector_11" d="M42.1437 6.56604C38.9667 3.2739 34.8905 0.99023 30.4238 0L30.0028 1.90344C34.0949 2.81405 37.8288 4.9084 40.7393 7.92564L42.1437 6.56604Z" fill="#FFCD00"/>
<path id="Vector_12" d="M44.208 27.7105H49.7058C49.9643 27.7105 50.2122 27.6078 50.395 27.4251C50.5778 27.2423 50.6805 26.9944 50.6805 26.7359V11.1419C50.6805 10.8834 50.5778 10.6355 50.395 10.4527C50.2122 10.27 49.9643 10.1673 49.7058 10.1673H40.1438C38.3181 8.02528 36.0486 6.30572 33.4925 5.12771C30.9364 3.94971 28.1547 3.34139 25.3402 3.34491C24.6882 3.34491 24.0372 3.38877 23.391 3.45309V1.39566C23.391 1.13717 23.2883 0.889274 23.1055 0.706497C22.9227 0.523719 22.6748 0.421036 22.4164 0.421036H0.974624C0.716138 0.421036 0.468239 0.523719 0.285461 0.706497C0.102684 0.889274 0 1.13717 0 1.39566V16.9896C0 17.2481 0.102684 17.496 0.285461 17.6788C0.468239 17.8616 0.716138 17.9643 0.974624 17.9643H6.47053C5.30673 22.448 5.78283 27.1999 7.81302 31.3636C9.84321 35.5272 13.2939 38.8287 17.5432 40.673V41.3553H16.5686C16.3101 41.3553 16.0622 41.4579 15.8794 41.6407C15.6967 41.8235 15.594 42.0714 15.594 42.3299V50.1269C15.594 50.3854 15.6967 50.6333 15.8794 50.816C16.0622 50.9988 16.3101 51.1015 16.5686 51.1015H17.5432V52.0761C17.5432 52.8516 17.8513 53.5953 18.3996 54.1436C18.948 54.6919 19.6917 55 20.4671 55H30.2134C30.9888 55 31.7325 54.6919 32.2808 54.1436C32.8292 53.5953 33.1372 52.8516 33.1372 52.0761V51.1015H34.1119C34.3703 51.1015 34.6182 50.9988 34.801 50.816C34.9838 50.6333 35.0865 50.3854 35.0865 50.1269V42.3299C35.0865 42.0714 34.9838 41.8235 34.801 41.6407C34.6182 41.4579 34.3703 41.3553 34.1119 41.3553H33.1372V40.673C35.8464 39.496 38.2516 37.7167 40.17 35.4706C42.0883 33.2245 43.4693 30.5705 44.208 27.7105ZM48.7312 25.7613H39.9596C39.7487 25.7613 39.5435 25.8297 39.3748 25.9562L37.0357 27.7105V26.7359C37.0357 26.4774 36.933 26.2295 36.7503 26.0467C36.5675 25.864 36.3196 25.7613 36.0611 25.7613H29.2387V12.1165H48.7312V25.7613ZM27.2895 30.6344V41.3553H23.391V30.6344C23.3911 30.4832 23.3561 30.3341 23.2886 30.1987L20.3804 24.3832L25.0722 25.7242C25.2474 25.7739 25.433 25.7739 25.6083 25.7242L27.2895 25.2437V26.7359C27.2895 26.9944 27.3922 27.2423 27.5749 27.4251C27.7577 27.6078 28.0056 27.7105 28.2641 27.7105H28.6364L27.3869 30.1987C27.3212 30.3345 27.2878 30.4836 27.2895 30.6344ZM1.94925 2.37028H21.4417V16.015H13.6447C13.3863 16.015 13.1384 16.1177 12.9556 16.3005C12.7728 16.4833 12.6701 16.7312 12.6701 16.9896V17.9643L10.331 16.21C10.1623 16.0834 9.95712 16.015 9.74624 16.015H1.94925V2.37028ZM18.8775 39.1136C14.8197 37.5201 11.5047 34.4665 9.5838 30.553C7.66295 26.6395 7.27521 22.1491 8.49678 17.9643H9.42169L13.06 20.6932C13.2287 20.8197 13.4339 20.8881 13.6447 20.8881C13.9032 20.8881 14.1511 20.7855 14.3339 20.6027C14.5167 20.4199 14.6194 20.172 14.6194 19.9135V17.9643H22.4164C22.6748 17.9643 22.9227 17.8616 23.1055 17.6788C23.2883 17.496 23.391 17.2481 23.391 16.9896V5.41404C24.038 5.33843 24.6888 5.29841 25.3402 5.29416C29.859 5.2891 34.2038 7.03583 37.4616 10.1673H28.2641C28.0056 10.1673 27.7577 10.27 27.5749 10.4527C27.3922 10.6355 27.2895 10.8834 27.2895 11.1419V23.2155L25.3402 23.773L18.7859 21.8998C18.6411 21.859 18.489 21.852 18.3411 21.8793C18.1932 21.9067 18.0536 21.9677 17.9331 22.0577L14.0346 24.9816L15.2041 26.541L18.168 24.3178L21.4417 30.8644V41.3553H19.4925V40.021C19.4928 39.8255 19.4343 39.6345 19.3246 39.4727C19.215 39.3108 19.0592 39.1858 18.8775 39.1136ZM17.5432 43.3045H33.1372V45.2538H17.5432V43.3045ZM31.188 52.0761C31.188 52.3346 31.0853 52.5825 30.9025 52.7653C30.7197 52.9481 30.4718 53.0508 30.2134 53.0508H20.4671C20.2086 53.0508 19.9607 52.9481 19.7779 52.7653C19.5952 52.5825 19.4925 52.3346 19.4925 52.0761V51.1015H31.188V52.0761ZM33.1372 49.1523H17.5432V47.203H33.1372V49.1523ZM29.2387 41.3553V30.8644L30.8157 27.7105H35.0865V29.6598C35.0865 29.8408 35.1369 30.0182 35.232 30.1722C35.3272 30.3261 35.4633 30.4506 35.6252 30.5315C35.7871 30.6124 35.9684 30.6467 36.1486 30.6305C36.3289 30.6142 36.5011 30.5481 36.6459 30.4395L40.2841 27.7105H42.1925C41.4468 30.2786 40.1227 32.6417 38.3217 34.6184C36.5207 36.5951 34.2907 38.1328 31.803 39.1136C31.6214 39.1857 31.4658 39.3106 31.3561 39.4723C31.2464 39.6339 31.1879 39.8247 31.188 40.02V41.3553H29.2387Z" fill="#212C4F"/>
</g>
</g>
</svg>
