<svg width="55" height="55" viewBox="0 0 55 55" fill="none" xmlns="http://www.w3.org/2000/svg">
<g id="bullhorn 1">
<path id="Vector" d="M31.7969 46.4062H30.0781V37.9844C30.0781 37.7565 29.9876 37.5379 29.8264 37.3767C29.6653 37.2155 29.4467 37.125 29.2188 37.125C28.9908 37.125 28.7722 37.2155 28.6111 37.3767C28.4499 37.5379 28.3594 37.7565 28.3594 37.9844V46.4062H6.01562V29.2188H13.1656C13.3935 29.2188 13.6121 29.1282 13.7733 28.967C13.9345 28.8059 14.025 28.5873 14.025 28.3594C14.025 28.1315 13.9345 27.9129 13.7733 27.7517C13.6121 27.5905 13.3935 27.5 13.1656 27.5H5.15625C4.92833 27.5 4.70974 27.5905 4.54858 27.7517C4.38742 27.9129 4.29688 28.1315 4.29688 28.3594V46.4062H2.57812C2.3502 46.4062 2.13162 46.4968 1.97046 46.658C1.80929 46.8191 1.71875 47.0377 1.71875 47.2656V48.9844C1.71875 50.124 2.17146 51.2169 2.97728 52.0227C3.7831 52.8285 4.87602 53.2812 6.01562 53.2812H28.3594C29.499 53.2812 30.5919 52.8285 31.3977 52.0227C32.2035 51.2169 32.6562 50.124 32.6562 48.9844V47.2656C32.6562 47.0377 32.5657 46.8191 32.4045 46.658C32.2434 46.4968 32.0248 46.4062 31.7969 46.4062ZM30.9375 48.9844C30.9375 49.6681 30.6659 50.3239 30.1824 50.8074C29.6989 51.2909 29.0431 51.5625 28.3594 51.5625H26.6406V50.7031C26.6406 50.4752 26.5501 50.2566 26.3889 50.0955C26.2278 49.9343 26.0092 49.8438 25.7812 49.8438C25.5533 49.8438 25.3347 49.9343 25.1736 50.0955C25.0124 50.2566 24.9219 50.4752 24.9219 50.7031V51.5625H9.45312V50.7031C9.45312 50.4752 9.36258 50.2566 9.20142 50.0955C9.04026 49.9343 8.82167 49.8438 8.59375 49.8438C8.36583 49.8438 8.14724 49.9343 7.98608 50.0955C7.82492 50.2566 7.73438 50.4752 7.73438 50.7031V51.5625H6.01562C5.33186 51.5625 4.67611 51.2909 4.19262 50.8074C3.70912 50.3239 3.4375 49.6681 3.4375 48.9844V48.125H30.9375V48.9844Z" fill="#212C4F"/>
<path id="Vector_2" d="M46.4062 6.875H48.125C48.3529 6.875 48.5715 6.78446 48.7327 6.62329C48.8938 6.46213 48.9844 6.24355 48.9844 6.01562C48.9844 5.7877 48.8938 5.56912 48.7327 5.40796C48.5715 5.24679 48.3529 5.15625 48.125 5.15625H46.4062C45.7225 5.15625 45.0667 5.42787 44.5832 5.91137C44.0997 6.39486 43.8281 7.05061 43.8281 7.73438V8.59375H42.9688C42.7408 8.59375 42.5222 8.68429 42.3611 8.84546C42.1999 9.00662 42.1094 9.2252 42.1094 9.45312C42.1094 9.68105 42.1999 9.89963 42.3611 10.0608C42.5222 10.222 42.7408 10.3125 42.9688 10.3125H43.8281V12.8906C43.8281 13.1185 43.9187 13.3371 44.0798 13.4983C44.241 13.6595 44.4596 13.75 44.6875 13.75C44.9154 13.75 45.134 13.6595 45.2952 13.4983C45.4563 13.3371 45.5469 13.1185 45.5469 12.8906V10.3125H46.4062C46.6342 10.3125 46.8528 10.222 47.0139 10.0608C47.1751 9.89963 47.2656 9.68105 47.2656 9.45312C47.2656 9.2252 47.1751 9.00662 47.0139 8.84546C46.8528 8.68429 46.6342 8.59375 46.4062 8.59375H45.5469V7.73438C45.5469 7.50645 45.6374 7.28787 45.7986 7.12671C45.9597 6.96554 46.1783 6.875 46.4062 6.875Z" fill="#FF6464"/>
<path id="Vector_3" d="M50.7031 1.71875H40.3906C39.7069 1.71875 39.0511 1.99037 38.5676 2.47387C38.0841 2.95736 37.8125 3.61311 37.8125 4.29688V6.01562C37.8125 6.24355 37.903 6.46213 38.0642 6.62329C38.2254 6.78446 38.444 6.875 38.6719 6.875C38.8998 6.875 39.1184 6.78446 39.2795 6.62329C39.4407 6.46213 39.5312 6.24355 39.5312 6.01562V4.29688C39.5312 4.06895 39.6218 3.85037 39.783 3.68921C39.9441 3.52804 40.1627 3.4375 40.3906 3.4375H50.7031C50.931 3.4375 51.1496 3.52804 51.3108 3.68921C51.472 3.85037 51.5625 4.06895 51.5625 4.29688V14.6094C51.5625 14.8373 51.472 15.0559 51.3108 15.217C51.1496 15.3782 50.931 15.4688 50.7031 15.4688H40.3906C40.1627 15.4688 39.9441 15.3782 39.783 15.217C39.6218 15.0559 39.5312 14.8373 39.5312 14.6094V9.45312C39.5312 9.2252 39.4407 9.00662 39.2795 8.84546C39.1184 8.68429 38.8998 8.59375 38.6719 8.59375C38.444 8.59375 38.2254 8.68429 38.0642 8.84546C37.903 9.00662 37.8125 9.2252 37.8125 9.45312V14.6094C37.8125 15.2931 38.0841 15.9489 38.5676 16.4324C39.0511 16.9159 39.7069 17.1875 40.3906 17.1875H50.7031C51.3869 17.1875 52.0426 16.9159 52.5261 16.4324C53.0096 15.9489 53.2812 15.2931 53.2812 14.6094V4.29688C53.2812 3.61311 53.0096 2.95736 52.5261 2.47387C52.0426 1.99037 51.3869 1.71875 50.7031 1.71875Z" fill="#212C4F"/>
<path id="Vector_4" d="M42.1094 36.0938C42.1094 36.7736 42.311 37.4382 42.6887 38.0035C43.0664 38.5688 43.6033 39.0094 44.2314 39.2696C44.8595 39.5298 45.5507 39.5979 46.2175 39.4652C46.8843 39.3326 47.4968 39.0052 47.9776 38.5244C48.4583 38.0437 48.7857 37.4312 48.9183 36.7644C49.051 36.0976 48.9829 35.4064 48.7227 34.7783C48.4626 34.1502 48.022 33.6133 47.4567 33.2356C46.8914 32.8579 46.2268 32.6562 45.5469 32.6562C44.6352 32.6562 43.7609 33.0184 43.1162 33.6631C42.4715 34.3077 42.1094 35.1821 42.1094 36.0938ZM47.2656 36.0938C47.2656 36.4337 47.1648 36.766 46.976 37.0487C46.7871 37.3313 46.5187 37.5516 46.2046 37.6817C45.8906 37.8118 45.545 37.8458 45.2116 37.7795C44.8782 37.7132 44.5719 37.5495 44.3315 37.3091C44.0912 37.0687 43.9275 36.7625 43.8612 36.4291C43.7948 36.0957 43.8289 35.7501 43.959 35.436C44.0891 35.122 44.3093 34.8535 44.592 34.6647C44.8746 34.4758 45.2069 34.375 45.5469 34.375C46.0027 34.375 46.4399 34.5561 46.7622 34.8784C47.0846 35.2007 47.2656 35.6379 47.2656 36.0938Z" fill="#FFCD00"/>
<path id="Vector_5" d="M50.7031 28.3594H40.3906C39.7069 28.3594 39.0511 28.631 38.5676 29.1145C38.0841 29.598 37.8125 30.2537 37.8125 30.9375V41.25C37.8125 41.9338 38.0841 42.5895 38.5676 43.073C39.0511 43.5565 39.7069 43.8281 40.3906 43.8281H50.7031C51.3869 43.8281 52.0426 43.5565 52.5261 43.073C53.0096 42.5895 53.2812 41.9338 53.2812 41.25V39.5312C53.2812 39.3033 53.1907 39.0847 53.0295 38.9236C52.8684 38.7624 52.6498 38.6719 52.4219 38.6719C52.194 38.6719 51.9754 38.7624 51.8142 38.9236C51.653 39.0847 51.5625 39.3033 51.5625 39.5312V41.25C51.5625 41.4779 51.472 41.6965 51.3108 41.8577C51.1496 42.0188 50.931 42.1094 50.7031 42.1094H40.3906C40.1627 42.1094 39.9441 42.0188 39.783 41.8577C39.6218 41.6965 39.5312 41.4779 39.5312 41.25V30.9375C39.5312 30.7096 39.6218 30.491 39.783 30.3298C39.9441 30.1687 40.1627 30.0781 40.3906 30.0781H50.7031C50.931 30.0781 51.1496 30.1687 51.3108 30.3298C51.472 30.491 51.5625 30.7096 51.5625 30.9375V36.0938C51.5625 36.3217 51.653 36.5403 51.8142 36.7014C51.9754 36.8626 52.194 36.9531 52.4219 36.9531C52.6498 36.9531 52.8684 36.8626 53.0295 36.7014C53.1907 36.5403 53.2812 36.3217 53.2812 36.0938V30.9375C53.2812 30.2537 53.0096 29.598 52.5261 29.1145C52.0426 28.631 51.3869 28.3594 50.7031 28.3594Z" fill="#212C4F"/>
<path id="Vector_6" d="M21.0289 11.9024C21.1657 11.9871 21.3235 12.0318 21.4844 12.0313C21.6189 12.0305 21.7514 11.9981 21.8711 11.9367L27.0273 9.3586C27.1681 9.28649 27.2862 9.17692 27.3687 9.04197C27.4512 8.90702 27.4949 8.75193 27.4949 8.59376C27.4949 8.4356 27.4512 8.2805 27.3687 8.14555C27.2862 8.0106 27.1681 7.90103 27.0273 7.82892L21.8711 5.25079C21.7403 5.18487 21.5948 5.15348 21.4484 5.15961C21.302 5.16574 21.1597 5.20919 21.0348 5.28582C20.91 5.36245 20.8068 5.46973 20.7351 5.59746C20.6633 5.72519 20.6254 5.86914 20.625 6.01563V11.1719C20.6247 11.3179 20.6616 11.4616 20.7323 11.5895C20.803 11.7173 20.9051 11.825 21.0289 11.9024ZM22.3438 7.40782L24.7156 8.59376L22.3438 9.7797V7.40782Z" fill="#05BB75"/>
<path id="Vector_7" d="M23.2031 16.3281C24.7328 16.3281 26.2282 15.8745 27.5001 15.0247C28.772 14.1748 29.7634 12.9668 30.3488 11.5536C30.9342 10.1403 31.0873 8.58517 30.7889 7.08485C30.4905 5.58453 29.7538 4.2064 28.6722 3.12472C27.5905 2.04305 26.2123 1.30642 24.712 1.00799C23.2117 0.70956 21.6566 0.862726 20.2433 1.44812C18.83 2.03352 17.6221 3.02485 16.7722 4.29677C15.9224 5.56868 15.4688 7.06404 15.4688 8.59375C15.4688 10.645 16.2836 12.6123 17.7341 14.0628C19.1846 15.5133 21.1518 16.3281 23.2031 16.3281ZM23.2031 2.57813C24.3929 2.57813 25.556 2.93094 26.5452 3.59194C27.5345 4.25295 28.3055 5.19246 28.7608 6.29167C29.2161 7.39089 29.3353 8.60043 29.1032 9.76734C28.871 10.9343 28.2981 12.0061 27.4568 12.8474C26.6155 13.6887 25.5436 14.2617 24.3767 14.4938C23.2098 14.7259 22.0003 14.6068 20.901 14.1515C19.8018 13.6962 18.8623 12.9251 18.2013 11.9359C17.5403 10.9466 17.1875 9.78353 17.1875 8.59375C17.1875 6.99831 17.8213 5.46821 18.9494 4.34006C20.0776 3.21192 21.6077 2.57813 23.2031 2.57813Z" fill="#212C4F"/>
<path id="Vector_8" d="M31.7969 19.7656C31.9303 19.7656 32.0619 19.7346 32.1812 19.6749C32.3005 19.6152 32.4043 19.5286 32.4844 19.4219L35.0625 15.9844C35.1992 15.802 35.258 15.5729 35.2257 15.3472C35.1935 15.1216 35.0729 14.918 34.8906 14.7813C34.7083 14.6445 34.4791 14.5858 34.2535 14.618C34.0278 14.6502 33.8242 14.7708 33.6875 14.9531L31.1094 18.3906C30.9726 18.573 30.9139 18.8022 30.9461 19.0278C30.9784 19.2534 31.0989 19.457 31.2813 19.5938C31.43 19.7053 31.6109 19.7656 31.7969 19.7656Z" fill="#FFCD00"/>
<path id="Vector_9" d="M33.6875 22.8594C33.7676 22.9661 33.8713 23.0527 33.9907 23.1124C34.11 23.1721 34.2416 23.2031 34.375 23.2031C34.5609 23.2031 34.7419 23.1428 34.8906 23.0313L38.3281 20.4531C38.5104 20.3164 38.631 20.1128 38.6632 19.8872C38.6955 19.6615 38.6367 19.4323 38.5 19.25C38.3632 19.0677 38.1596 18.9471 37.934 18.9149C37.7084 18.8827 37.4792 18.9414 37.2969 19.0781L33.8594 21.6563C33.677 21.793 33.5565 21.9966 33.5243 22.2222C33.492 22.4479 33.5508 22.6771 33.6875 22.8594Z" fill="#212C4F"/>
<path id="Vector_10" d="M42.1093 24.75C42.0888 24.6361 42.0456 24.5274 41.9822 24.4306C41.9187 24.3338 41.8364 24.2508 41.7401 24.1866C41.6438 24.1224 41.5355 24.0783 41.4217 24.057C41.3079 24.0357 41.191 24.0375 41.078 24.0625L36.7811 24.9219C36.6683 24.9332 36.5588 24.9666 36.4588 25.0202C36.3589 25.0738 36.2705 25.1466 36.1986 25.2343C36.0536 25.4116 35.9849 25.6393 36.0077 25.8672C36.0305 26.0951 36.1429 26.3046 36.3202 26.4497C36.4975 26.5947 36.7251 26.6634 36.953 26.6406H37.1249L41.4218 25.7812C41.5357 25.7608 41.6443 25.7176 41.7411 25.6541C41.838 25.5907 41.921 25.5084 41.9852 25.412C42.0494 25.3157 42.0935 25.2075 42.1148 25.0937C42.1361 24.9799 42.1342 24.863 42.1093 24.75Z" fill="#FF6464"/>
<path id="Vector_11" d="M2.57812 24.9219H12.8906C13.1185 24.9219 13.3371 24.8313 13.4983 24.6702C13.6595 24.509 13.75 24.2904 13.75 24.0625V10.3125C13.75 10.0846 13.6595 9.86599 13.4983 9.70483C13.3371 9.54367 13.1185 9.45312 12.8906 9.45312H2.57812C2.3502 9.45312 2.13162 9.54367 1.97046 9.70483C1.80929 9.86599 1.71875 10.0846 1.71875 10.3125V24.0625C1.71875 24.2904 1.80929 24.509 1.97046 24.6702C2.13162 24.8313 2.3502 24.9219 2.57812 24.9219ZM3.4375 11.1719H12.0312V23.2031H3.4375V11.1719Z" fill="#212C4F"/>
<path id="Vector_12" d="M9.45312 12.8906H7.73438C7.50645 12.8906 7.28787 12.9812 7.12671 13.1423C6.96554 13.3035 6.875 13.5221 6.875 13.75C6.875 13.9779 6.96554 14.1965 7.12671 14.3577C7.28787 14.5188 7.50645 14.6094 7.73438 14.6094H9.45312C9.68105 14.6094 9.89963 14.5188 10.0608 14.3577C10.222 14.1965 10.3125 13.9779 10.3125 13.75C10.3125 13.5221 10.222 13.3035 10.0608 13.1423C9.89963 12.9812 9.68105 12.8906 9.45312 12.8906Z" fill="#FFCD00"/>
<path id="Vector_13" d="M9.45312 16.3281H6.01562C5.7877 16.3281 5.56912 16.4187 5.40796 16.5798C5.24679 16.741 5.15625 16.9596 5.15625 17.1875C5.15625 17.4154 5.24679 17.634 5.40796 17.7952C5.56912 17.9563 5.7877 18.0469 6.01562 18.0469H9.45312C9.68105 18.0469 9.89963 17.9563 10.0608 17.7952C10.222 17.634 10.3125 17.4154 10.3125 17.1875C10.3125 16.9596 10.222 16.741 10.0608 16.5798C9.89963 16.4187 9.68105 16.3281 9.45312 16.3281Z" fill="#05BB75"/>
<path id="Vector_14" d="M9.45312 19.7656H6.01562C5.7877 19.7656 5.56912 19.8562 5.40796 20.0173C5.24679 20.1785 5.15625 20.3971 5.15625 20.625C5.15625 20.8529 5.24679 21.0715 5.40796 21.2327C5.56912 21.3938 5.7877 21.4844 6.01562 21.4844H9.45312C9.68105 21.4844 9.89963 21.3938 10.0608 21.2327C10.222 21.0715 10.3125 20.8529 10.3125 20.625C10.3125 20.3971 10.222 20.1785 10.0608 20.0173C9.89963 19.8562 9.68105 19.7656 9.45312 19.7656Z" fill="#FF6464"/>
<path id="Vector_15" d="M31.0407 24.6641C30.9843 24.5659 30.9091 24.4798 30.8194 24.4107C30.7297 24.3415 30.6272 24.2908 30.5179 24.2612C30.4086 24.2317 30.2945 24.224 30.1822 24.2386C30.0699 24.2531 29.9616 24.2897 29.8634 24.3461C29.7652 24.4025 29.6791 24.4777 29.61 24.5674C29.5409 24.6571 29.4901 24.7596 29.4606 24.8689C29.431 24.9782 29.4233 25.0923 29.4379 25.2046C29.4525 25.3169 29.489 25.4253 29.5454 25.5234L33.3353 32.0805L19.5853 37.2367C19.5853 37.2367 19.5853 37.2367 19.5251 37.2367H19.4564L17.222 38.5258L15.7353 39.3852C15.5395 39.4983 15.3234 39.5717 15.0993 39.6012C14.8751 39.6307 14.6474 39.6157 14.429 39.557C13.9904 39.4385 13.6165 39.1512 13.3892 38.7578L11.6704 35.7844C11.4682 35.3953 11.4223 34.9438 11.5421 34.522C11.662 34.1003 11.9384 33.7402 12.315 33.5156L15.2884 31.7969L17.4368 35.518C17.5125 35.6491 17.6216 35.7579 17.7529 35.8334C17.8842 35.9088 18.0331 35.9483 18.1845 35.9477C18.3356 35.9483 18.4843 35.909 18.6154 35.8338C18.7465 35.7586 18.8555 35.6502 18.9313 35.5195C19.0071 35.3887 19.0471 35.2403 19.0473 35.0891C19.0474 34.938 19.0077 34.7895 18.9321 34.6586L16.715 30.8258L27.5001 21.9313L27.8525 22.5414C27.9089 22.6396 27.9841 22.7257 28.0738 22.7948C28.1635 22.8639 28.2659 22.9147 28.3753 22.9442C28.4846 22.9738 28.5987 22.9815 28.711 22.9669C28.8233 22.9523 28.9316 22.9158 29.0298 22.8594C29.128 22.8029 29.2141 22.7277 29.2832 22.638C29.3523 22.5483 29.4031 22.4459 29.4326 22.3366C29.4621 22.2272 29.4698 22.1132 29.4553 22.0009C29.4407 21.8886 29.4042 21.7802 29.3478 21.682L28.4884 20.1953C28.4254 20.0876 28.3398 19.995 28.2374 19.9237C28.135 19.8525 28.0183 19.8044 27.8954 19.7828C27.7719 19.7595 27.6448 19.7636 27.523 19.7948C27.4013 19.826 27.2879 19.8835 27.1907 19.9633L15.1595 29.8805L11.4986 31.9945C10.8416 32.3772 10.33 32.9669 10.0439 33.6713C9.75775 34.3757 9.71324 35.1551 9.9173 35.8875L9.05793 36.3773C8.61514 36.6316 8.25783 37.0117 8.03129 37.4693C7.80476 37.9269 7.71921 38.4414 7.78548 38.9477C7.85176 39.454 8.06688 39.9292 8.40357 40.3131C8.74026 40.6969 9.18336 40.9722 9.67668 41.1039C9.89538 41.1618 10.1207 41.1907 10.347 41.1898C10.7991 41.188 11.2431 41.0696 11.6361 40.8461L12.4954 40.3563C12.9082 40.7827 13.4274 41.0912 13.9993 41.25C14.293 41.3321 14.5967 41.3726 14.9017 41.3703C15.5057 41.3717 16.0992 41.2115 16.6204 40.9062L17.3681 40.4766L19.0868 43.4586C19.4284 44.0492 19.9901 44.4802 20.6489 44.6574C21.3078 44.8346 22.0099 44.7435 22.6017 44.4039C22.8952 44.2348 23.1526 44.0094 23.359 43.7407C23.5654 43.4721 23.7168 43.1654 23.8046 42.8381C23.8924 42.5109 23.9149 42.1696 23.8707 41.8337C23.8264 41.4977 23.7165 41.1738 23.547 40.8805L21.9829 38.1563L34.8735 33.318C34.9905 33.274 35.0964 33.2051 35.1839 33.1161C35.2715 33.027 35.3386 32.92 35.3806 32.8023C35.4224 32.6861 35.4387 32.5622 35.4283 32.4391C35.4179 32.3161 35.3811 32.1966 35.3204 32.0891L31.0407 24.6641ZM10.7423 39.3508C10.6444 39.4074 10.5364 39.4441 10.4243 39.4588C10.3122 39.4736 10.1983 39.4661 10.0892 39.4367C9.869 39.3795 9.68049 39.2374 9.56496 39.0414C9.50838 38.9435 9.47167 38.8355 9.45692 38.7234C9.44218 38.6113 9.44969 38.4974 9.47902 38.3883C9.50836 38.2785 9.55916 38.1757 9.62849 38.0857C9.69782 37.9958 9.7843 37.9204 9.88293 37.8641L10.6306 37.4344L11.49 38.9211L10.7423 39.3508ZM22.0517 41.757C22.1083 41.8549 22.145 41.963 22.1597 42.075C22.1745 42.1871 22.1669 42.301 22.1376 42.4102C22.0763 42.6286 21.9311 42.814 21.7337 42.9258C21.5374 43.0385 21.3046 43.0693 21.0857 43.0114C20.8669 42.9534 20.6798 42.8115 20.565 42.6164L18.8462 39.6344L20.2728 38.818H20.3415L22.0517 41.757Z" fill="#05BB75"/>
</g>
</svg>
