<svg width="59" height="55" viewBox="0 0 59 55" fill="none" xmlns="http://www.w3.org/2000/svg">
<g id="Group 31">
<path id="Vector" d="M15.5484 34.9914C16.0912 34.6783 16.277 33.9834 15.9639 33.4406C15.6504 32.8983 14.956 32.7121 14.4132 33.0251C13.8704 33.3386 13.6842 34.0335 13.9977 34.5759C14.3108 35.1186 15.0057 35.3049 15.5484 34.9914Z" fill="#05BB75"/>
<path id="Vector_2" d="M10.8963 42.8265L16.6132 52.729C17.8469 54.8682 20.6219 55.6602 22.8165 54.3915C24.9881 53.1366 25.7344 50.3619 24.4781 48.1886L21.0725 42.289L24.0218 40.5862C24.5646 40.2722 24.7509 39.5782 24.4373 39.0355L22.9611 36.4785C23.1372 36.4444 24.2945 36.2174 44.705 32.2135C47.2282 32.0765 48.7399 29.3169 47.4654 27.1108L43.6926 20.5762L46.1036 16.9244C46.3404 16.5652 46.3546 16.1036 46.1395 15.7311L43.8691 11.7986C43.654 11.4261 43.2456 11.208 42.8177 11.2332L38.4502 11.4953L34.2619 4.24056C33.6552 3.1896 32.5683 2.55326 31.3551 2.53818C31.3404 2.53774 31.3262 2.53773 31.3116 2.53773C30.1391 2.53773 29.0749 3.12131 28.4443 4.10797L13.6146 22.9996L3.97369 28.5657C0.181794 30.7541 -1.13169 35.6187 1.06514 39.4208C3.07217 42.8974 7.30352 44.265 10.8963 42.8265ZM22.5123 49.3243C23.1394 50.4089 22.7682 51.7969 21.6804 52.4253C20.5891 53.0563 19.1994 52.6687 18.5794 51.5943L12.9033 41.7618L16.8358 39.4913C23.405 50.871 22.4068 49.142 22.5123 49.3243ZM19.9373 40.3223L18.802 38.3561L20.7683 37.2209L21.9035 39.1871L19.9373 40.3223ZM42.2536 13.5414L43.8225 16.2588L42.4235 18.3776L39.7193 13.6935L42.2536 13.5414ZM30.3431 5.35272C30.6478 4.85429 31.1311 4.80285 31.3271 4.80817C31.5209 4.81039 32.0038 4.8707 32.2952 5.37534L45.4992 28.246C45.9293 28.9905 45.4065 29.9267 44.544 29.9479C44.3892 29.9515 44.3178 29.9794 43.9214 30.0535L29.9542 5.86135C30.2473 5.48443 30.285 5.44806 30.3431 5.35272ZM28.4434 7.7859L41.5663 30.5156L21.7611 34.4001L15.7392 23.9699L28.4434 7.7859ZM3.03137 38.2856C2.53294 37.4231 2.26953 36.444 2.26953 35.4533C2.26953 33.4285 3.35775 31.543 5.10891 30.532L13.957 25.4235L19.6331 35.2546L10.785 40.3636C8.07422 41.928 4.59629 40.9959 3.03137 38.2856Z" fill="#212C4F"/>
<path id="Vector_3" d="M12.0315 35.711C11.718 35.1682 11.0236 34.982 10.4808 35.2955L8.51455 36.4307C7.97266 36.7438 7.2769 36.5571 6.96383 36.0152C6.65031 35.4724 5.95588 35.2862 5.4131 35.5997C4.87032 35.9132 4.68408 36.6076 4.99759 37.1504C5.93193 38.769 8.01612 39.3397 9.64977 38.3969L11.616 37.2617C12.1588 36.9482 12.345 36.2542 12.0315 35.711Z" fill="#FF6464"/>
<path id="Vector_4" d="M56.4358 4.96614L50.11 8.48621C49.5624 8.7913 49.365 9.48263 49.6701 10.0303C49.9743 10.5775 50.6652 10.7757 51.2142 10.4702L57.5395 6.95012C58.0876 6.64503 58.2845 5.9537 57.9794 5.40604C57.6748 4.85794 56.9834 4.66105 56.4358 4.96614Z" fill="#05BB75"/>
<path id="Vector_5" d="M55.7725 16.7236L51.3864 15.5485C50.7806 15.3862 50.158 15.7454 49.9957 16.3511C49.8334 16.9569 50.1931 17.579 50.7988 17.7413L55.1854 18.9165C55.7947 19.0801 56.4142 18.7151 56.5756 18.1138C56.7379 17.5081 56.3782 16.8855 55.7725 16.7236Z" fill="#FFCD00"/>
<path id="Vector_6" d="M44.7502 0.841624L43.5738 5.22818C43.4115 5.83392 43.7707 6.45608 44.3764 6.61882C44.9817 6.78068 45.6043 6.42237 45.7671 5.81619L46.9431 1.42963C47.1054 0.823886 46.7462 0.20129 46.1404 0.0389895C45.5351 -0.123311 44.9125 0.235879 44.7502 0.841624Z" fill="#FF6464"/>
</g>
</svg>
